/* XPM */
static char *_4256_9003f40e38571e9c509594b39d06a976823cb02525c934c730461f17b05ef1bd[] = {
/* columns rows colors chars-per-pixel */
"128 128 91 1 ",
"  c #8D8EEA",
". c #958DE5",
"X c #9C8DE6",
"o c #928EEB",
"O c #9C8EE9",
"+ c #8F90EC",
"@ c #9493E7",
"# c #9D93E6",
"$ c #989AE7",
"% c #9592EB",
"& c #9C93EC",
"* c #9C99ED",
"= c #9692F0",
"- c #9B96F2",
"; c #9E9AF1",
": c #A18EE6",
"> c #AC8FE4",
", c #A28FEA",
"< c #B38FE7",
"1 c #A493E6",
"2 c #AD93E6",
"3 c #A099E7",
"4 c #A494EB",
"5 c #AC95EB",
"6 c #A599ED",
"7 c #AC9BED",
"8 c #B192E7",
"9 c #BD97E4",
"0 c #B099E7",
"q c #BF99E6",
"w c #B494EB",
"e c #BA95EC",
"r c #B499ED",
"t c #BB99EE",
"y c #A296F1",
"u c #AC96F0",
"i c #A49BF2",
"p c #AB9CF2",
"a c #B396F0",
"s c #B996F1",
"d c #B49BF1",
"f c #BC9AF0",
"g c #B29FF8",
"h c #9EA0ED",
"j c #A4A2EE",
"k c #ACA0EF",
"l c #A6A3F2",
"z c #ABA2F2",
"x c #A7A3F8",
"c c #ABA7FA",
"v c #B1A3F3",
"b c #B2A0F9",
"n c #C199E7",
"m c #C697EB",
"M c #C49CEC",
"N c #C99DEE",
"B c #D09FEE",
"V c #C49DF2",
"C c #CA9EF1",
"Z c #C6A0EE",
"A c #CAA1EF",
"S c #D1A3EF",
"D c #C5A1F3",
"F c #CCA3F3",
"G c #C7A4F8",
"H c #C9A6F8",
"J c #CEA9F9",
"K c #D3A5F4",
"L c #DAA6F4",
"P c #D4A9F5",
"I c #DCAAF5",
"U c #D1A6F8",
"Y c #D5A9F8",
"T c #DCACF8",
"R c #DCB1F6",
"E c #DCB0F8",
"W c #E3ADF6",
"Q c #EBADF5",
"! c #E3AEF8",
"~ c #EBAEF8",
"^ c #F2AEF6",
"/ c #F3AEF8",
"( c #E4B1F6",
") c #ECB1F6",
"_ c #E4B1F9",
"` c #EDB2F8",
"' c #F4B2F7",
"] c #FAB3F7",
"[ c #F4B2F9",
"{ c #FCB5FB",
"} c #FEB9FE",
/* pixels */
"}}}`}}}}}}R}}}}}}}}}}}}}}}}}}}}}}}}}}}}}}}}}}}}}}}}}}R}}}}}}}}}}}}}R}}}}}}}}}}}}}}}}}}}}}}}}}}}}}}}}}}}}}}}}}}}}}}}}}}}}}}}}}}}}",
"}}}}}}}_}}}}}}}}R}}}R}}}}}R}}}}}`}`}}}_}}}}}R}}}R}}}}}}}}}}}_}}}}}}}}}}}}}}}}}}}}}}}}}}}}}}}}}}}}}}}}}}}}}}}}}}}}}}}}}}}}}}}}}}}",
"}}}}}}}}}}}}}}}}R}}}}}}}}}}}}}}R}}}}}}}}}}}_}}}}}}}RR}}}}}}}}}}}}}}}}}}}}}}}}}}}}}}}}}}}R}}}}}}}R}}}}}}}}}}}}R}}}}}}}}}}}}}}}}}}",
"`}}`_}}}}}}}}}}}}}}}}}}}}}}}}}}}}`}}}_}}}}}}}}}}}}}}}}}}}}}}}}}}}}}}}}}}R}}}}}R}}}}}}}R}}}}}}}}}}}}}}}}R}}}}}}}}}}}}}}}}}}}}}R}}",
"}}}}}}}}}}}}}}}}}}R}}}}}}}}}}}}}`}}}}}}}}}}}R}}}R}}}}}}}}}}}}}}}}}}}}}}R}R}}}}}}}}}}}}}}}}}}}}}R}}}}}}}}}}}}}}}}}}}}}}}}}}}}}}}}",
"R}}}}}}}R}}}}}}}}}}}}}}}}}}}}}}}}}}}}[}}}}}}}}}}}}}}}}}}}}}}}}}}}R}}}}}}}}}}}}}}}}}}}}}}}}}}}}}}}R}}}}}}}}}}}}}}}}}}}}}}}}}}}}}}",
"}}R}}}}}}}}}}}}}}}}}}}}}}}}}}}}}}}}}}}}}}}}}}}}}}}}R}}}}}}}}}}}}}}}}}}}}}}}}}}}}}}}}}}}}}}}}}}}}}}}}}}}}}}}}}}}}}}}}}}}}}}}}}}}}",
"}}}}}}}R}}}}}}}}}}}}}}}}}}}}R}}}}}}}}}}}}}}}}}}}}}}}}}}R}}}}}}}}}}}}}}}}}}}}}}}}}}}}}}}}}}}}}}}}}}}}}}}}}}}}}}}}R}}}}}}R}}}R}}}}",
"}}}}}}}}}}}}}}}}}}}}}}}}}}}}}R}}}}}}}}}}}}}}}}}}}}}}}}}}}}}}}}}}}}}}}}}}}}}}}}}}}}}}}}}}}}}}}}}}}}}}}}}}}}}}}}}}}}}}}}}}}}}}}}}}",
"}R}}}R}}}}}}}}}}}}}}[}}}R}}}}}}}}}}}}}}}}{{}}}}}}}}}}}}}}}}}}}}}}}}}}}}}}}}}}}}}}}}}}}}}}}}}}}}}}}}}}}}}}}}}}}}}}}}}}}}}}}}}}}}}",
"}}}}}}}}}}}}}}}}}}}}}}}}}}}}}}}}}}}}}}}}{}}}}}}}}}}}}}}}}}}}}}}}}}}}}}}}}}}}}}}}}}}}}}}}}}}}}}}}}}}}}}}}}}}}}}}}}}}}}}}}}}}}}}}}",
"}}}R}}}R}}}R}}}}}}}}}}}}}}}}}}}}}{}}}}}}{}}}}}{}}R}}}}}}}}}}}}}}}}}}}}}}}}}}}}}}}}}}}}}}}}}}}}}}}}}}}}}}}}}}}}}}}}}}}}}}}}}}}}}}",
"}}}R}}}}}}}}}}}R}}{}}}]}}}}}}}}}{}}}{}}}}}}}}}}}}}}}}}}}}}}}}}}}}}}}}}}}}}}}}}}}}}}}}}}}}}}}}}}}}}}}}}}}}}}}}}}}}}}}}}}}}}}}}}}}",
"}R}}}}}}}}}}}}}}{}}{}}}}}}}`}}`}}}{}}}{{}}}}}}}}}}}}}}}}}}}}}}}}}}}}}}}}}}}}}}}}}}}}}}}}}}}}}}}}}}}}}}}}}}}}}}}}}}}}}}}}}}}}}}}}",
"}}R}}}}}}}}}R}}}}{{{}}}`}}}}}}}}}{}}}{}}{}{}}}}}}}}}}}}}}}}}}}}}}}}}}}}}}}}}}}}}}}}}}}}}}}}}}}}}}}}}}}}}}}}}}}}}}}}}}}}}}}}}}}}}",
"}}}}}R}}R}}}}}}}{}{}}}}}}}}}}}}}}{}{}}{}}}{}}{}}}}}}}}}}}}}}}}}}}}}}}}}}}}}}}}}}}}}}}}}}}}}}}}}}}}}}}}}}}}}}}}}}}}}}}}}}}}}}}}}}",
"[}}}}[[}}[}[[}}[{}{{{{}{{{}{}}}{{}{{}{{}}}}{{}}}}}}}}}}}}}}}}}}}}}}}}}}}}}}}}}}}}]}}}}}]}}}}}}}}}}}}]}}}]}]}]}}]}}}}}}}}}}}}}}}}",
"}}[[}}}}}}[}}[}}}{{{{}{}}{{}{{}}}{{}{}}}}}}}}}{}}}]}}}}}}}}}}}}}}}}}}}}}]}}}}]}}}}]}]}}}]}]}]}}}}}}}}}}}}}}}}}}}}}}}}}}}}}}}}}}}",
"}[}}[}}[[}[}[}}[}{{}{{{{{{}{}{}{{}}{}}{{{}{}}{}}}}}]}}}}}}}}}}}}}}}}}}}}}}}}}}}]}}}}}}}]}}]}}}]}}]}]}}}}}}]}}}}}}}}}}}}}}}}}}}}}",
"}}[}}[[}}[}}[}}[{}{{{{}}{{}{{{}}{}{}{}}}}}{}}{}{}]}}}}}}}}}}}}}}}}}}}}}}}}}}}}}}]}]}}]}}]}}}}}}}}}}}}}]}}]}}}]}]}}}}}}}}}}}}}}}}",
"`[}}}[}}}}}[{{{{{}}{{{}{{}}{}}}{{}}}}]}}}{{}}{}}}]}}}}}]}}}}}}}}}}}}}}}}}]}]}}}}}}}}]}]}}}]}]}]}}}}}}}}}}}}}}}]}}}}}}}}}}}}}}}}}",
"}}}[}[}[}[}}}}{}}{{{}{{}{{{{{{}}}}}]}}}}}}}}}}{}]}}}]}}}}}}}}}}}}}}}}}}}}}}}]}]]}]}]}}}}]}}]}}}}}}]}}}}}}]}]}}}}}}}}}}}}}}}}}}}}",
"}[}}{{[{}{}}}{{}{}{{{{}{{{{}{{}}{{{}]}}]{}{{{{}}]]]}}}]}}}}}}}}}}}}}}}}}}]}}}}}}]}}}}}]}}]}]]}]}}}}}}}}}}}}}}]}}}}}}}}}}}}}}}}}}",
"{}}[}{}{{}{}{}{{}{{{{{{}}{}{}}}}}{}{{}}]}}}}}}}{}}]}}]}}}}}}}}}}}}}}}}}}}}]}]}}]}}}]}]}}]}]}]}}}}}}}}]}}}}]}}}]}}}}}}}}}}}}}}}}}",
"{{{{{{{{}{}}}{{}{{}{{{{{{}{}{}{}}]}}}]}}]}]}]}}}}}]}}}}]}}}}}}}}}}}}}}}}}}}}}}]}]}]}}]}}]}]}}]}]}}]}}}}}}}]]}}}]}}}}}}}}}}}}}}}}",
"{}{}}{}{}}}{}}}}}{{{{{{{}{{}}{{{]}}}}}}}}}}}}}}]}]}}}]}}}}}}]}}}}}}}}}}}]}}}}]}}}]]}}]]}}}}}}}}}}]}}}}}]}}}}}}}}}}}}}}}}}}}}}}}}",
"{}{{{{{{{{{{{{}{{{{{{{{{{}{}}{}{}}]}}]}}}]}]}}}}}}}}}]}]}}}}}}}}}}}}}]}}]}}}}}}}}]}}]}}}}}]}}]}}}}}}]}}}}]]}]}}]}}}}}}}}}}}}}}}}",
"{{{{{}{{}{}{{}{}{{{{{{{{{{{{{}{{}}}]}}}]}}}}}]}]}]}]}}}}}}}}}}}}}}}}}}]}}}}]}]}]}}}}}}}}}]}}}}]}]}}]}}}}}}}}}}]}}}}}}}}}}}}}}}}}",
"{{{{{{{{{{{{{{{{{{{{{{{{{{{{{{{{]}}}}}}]}}}}]}}}}]}]}}}]}]}}}}}{}}}}}}}}}}}]}}}}}}}}}}}}]}}}]}}]]}}]}}}]}}]]}}{}}}}}}}}}}}}}}}}}",
"{{{[{{{{{{{{{{{{{{{{{{{{{{{{{{{{}}}}}]}}}}}}}}}]}}}}]}}}}}}}{}}}}}}}]}}}}}}}}}}}}}}}}}]}}}}]}}}}}]}}]}}}}}}}{}}}}}}}}}}}}}}}}}}}",
"{{{{{{{[{{{{{{{{{{{{{{{{{{{{{{{{}]}]}}}}}]]}]}}}}]}}}]}]}}}}{}}}}}}}}}}]}}}}}}}}}}}}}}}}]}]}]]}]]}}]}]}}}]{{}}}}}}}}}}}}}}}}}}}}",
"{{{{{{{{{{{{{{{{{{{{{{{{{{{{{{{{}}}}}]}}]}]}}}}]}}]}}}}}}}]}}}}{}}}}}]]}}]}}}}]}]}}]}]}}}}}}}}}}}]]}}}]}}}}{{}}}}}}}}}}}}}}}}}}}",
"{{{{{]{{]]]]]]]]{]{]{]]]]]]]]]]{{{{{{{{{{{{{{}}{{{{{{{}]}{{}}}{}}]{}}}}}{}}}{{{{}}}}}}}}}}}}}}}}}}}}}}}}{}}{}}}{}}}}}}}}}}}}}}}]",
"{{{]{{{]]]]]]]]]]]]{]{{]]]]]]]]]{{{{{{{{{{{{}{{{}{{{}}{}{}{}}}{{}}}}}}}}}}}}{}{}{}}}{}{{{}}{{}{}}}}}}}}}}}}{}{}}}}}}}}}}}]]}]}}}",
"{{{]{{{{]/]//]]]{{{{{{{{]]]]]]]]{]{{]{]{]]{{{{]{{{{{{{{}{{{}}{{}}}{{}}}}}}{}}}{}}}}}}}}}}{}}}}{}}}}}}}}}}}{}}}}{{{}}}}]}}}}}}}}}",
"']]']]/{]]]]]]]]{]{]]{]{]]]{]]]]]{]{{]{]]{]{]{{]{{{{{}}{}{}{{}}{}]}}]}}{}{}}}}}{}}{}}{{}}}{}}{}}}}}}}}}}{}}}}}}}{{{{]}}}}]}]]}}]",
"]{[{/{{/{]]{{{{{]]]]]]]]{]]]]]]]{]{]]{{{{]]]{]]{{{{{{{{]}}}}{}{{]]}{{{{{}}}}{{{{}}{}{}{{{}}{}}}}}}}}}}}}}}{{}{{}{{}{{{]}}]}]}]}}",
"[{{{{{/{]]{]]{{{]]]/]]]]]]]]]]]]{]]]{]{]]{]{]{]]{]]]]{]]}{}}}{{{}]}]{{{{{{{{{{{{{}}{}{{}}{{}{}{{}}}}}}}}{}}}}}}}{}]}{{}}}}}}}}}}",
"[{[{/{/{]/]]]]]]]]/]]]{]]]/]]]]]]]]]]]]]{{]{{]{{]/]]]]]]]]{{{{{{]{]{{{{{{{}}{]]{}}{}{}{{{}{}{{{}{{{}}}}}{}{{{{}{}{}]}}]]}]}}}]]}",
"[[/[/{/{/]///]/]]]]]]]{{//]/////]//]]//]]]{}]{]{]]/]/]]/]]{]{{{{]]]]{{{]{{{]]{]{{{}{}{{{}{}{}{}}{{}]]}]}}{}}{}}}}{}}}{}}}}]}}}}}",
"/^/Q/^///]////////{/{/{/]]]//]////]///^^]]]]]]]]]]]]/]/]/]]]{{]]]]]{{{]/{{{{]{{{{{{{{{{{[{{}{{{{{{{{{{{{}}{}{}}}]}}]}}}}]}]}}]}}",
"//////////^^////////]/]/////]/]///////^^]]]]^]]]]]/]]/]]]]]]{]]]]]]{]{]{{{{{{{{{{{{{[{{{{][]{]{/{{]]{{{{{}{{{{{}}}]}]}]]}]}}]}}]",
"/Q//^^/Q/^^Q/////^~////////////^////]/^^'^^^^]^^/]/{////]]]]]]]]{]]]]]{{{{{{]{]{{{{{{{{{]]]{[[]{{]{{{{{}{}}{}{{}]]}]]}]}}}}]}]}]",
"/QQQ^Q//^^^^^////^////////^///^^///^//^^^^^^^^^^/]]//]/]/]]{]/]]{]]^//]/][]]{/{]{{[][{[{]'']]{]{]{]{{{{{{{{{{{{}]]]]]]}]]]]}]}]}",
"Q/W^Q/QQ///^^^^^~////Q/~///////W////^^^^^^^^^^^^////////]]]/]]']/[[^//{/[[]{{[]]{]]][{[]][{[]{]]{]]{[{]]{{[}{{{[]]]]]]]]}]}]}]}]",
"QWW/QQQ////^^^Q^/////////^//////////^^^^^^^^]]^^^^^^///^////''^^/[^']//][[/[/[[[//]]]][]{[]{{[{}]]{][]}]]{{{[{{{]]]]]]}]]}]]]}]}",
"~~/Q/QQ/////^^^Q//~/////W//W^~/^////^^^^^^^^^^^^^^Q^^^^~^^//^)^'^''^'^//[[[//[[/]]/]]/]/]]]][][[[][[{[][{[{}{{[{]]]]]]]]}]]}}]}]",
"~/~~Q/Q//L/L^Q^Q/////~//////~Q/^////^^^^^^^^^^^^Q^^^Q^^^~^^/Q^^'^Q/`['^^^[[`[[[^]/]/]]][][[[][}[][[[[[}[[{[[[[}[]]]}}]]]}]}]]}]]",
"~~QQWQQQQQQQQQQQQQQQQQQQ^/QQ^~~^//^^^^^^^Q^^^^^[~QQQQQQQ)))))^Q)'[``[`[[~`)))''Q^^]^^]['[[`[[[`['`)]`)`]]````}`}])}`}'}}}]]]]]}]",
"QQQWQWQQQQWQQQQQQQQQQQQQQWQQQQQQ^/^QQQQQ^Q^Q^~^'^)QQQQQQ)Q'))))))~~[````~')))'))^^^^'^'[)['``[`[`'')'}```}`}`[`['}(}''''}]}]}]}]",
"QWQQWQQQQQQQQQQQQQQWQQQQW/QQQ/QQ/QQ^Q^QQQ~~~Q~Q~))QQQQ)QQQQQ^QQ)))~```)))))))))Q)^)'^')'`[````')``])}()```}(}``[})}('''']'''`]']",
"QQQQQQQQQQQQQQQQQQWQQQQQ/W~QQQQQWQQLQLQQ~~``~QQQ~)))(QQQQQ(QQQ)(~~~~)~))QQ)))Q)))))))))))`))))))``((}`}``}(}``[`()'''''''}]]]]]`",
"QWQWWWWQQWLQWQWWQQQQLQQQQ~~~Q~Q~WWWWLQQL!)~!Q!~!QQ((Q(((W(WW(WQ(!~!~~W))Q((QQQ(Q`((`(```)))_))Q!````)````(`}````)````}''''''`''(",
"LLQQWWLWWQQLWWQWQLQLQLQL!QW~!Q!!WWWWQLWQW((WWW!_((((((WW((WWW(W(!!QWQ!Q!(QW(Q(((((((((((__~))!QW)()()))(``((`)```(``))'`))''')''",
"QLQLWWWWQLLWLWWLLQLQQLLQ!!!!W!WWWI!!!!WWTW!WWT__I(((((WS(SI(IW(W!W!!WWW!Q((W(WQWRR_(((((_)__!Q!Q)((()()()(``)(())```)``)))')))((",
"WWWLLLWLLWLLLWWIWBQLLQLLWLWWWLWWTW!T!LWIWTT_T(__(S(S(S(((I(((SIIW!WT!W!WWWWWW(((RRRRR(RR___!!!!W(((((((((((RQ(WW((`(())))))))))(",
"LWLWTIIIIIII!LLILWLLIIILIIWIIIIILITLTTLLTLIITLTTRRIIIRIRRRIIRIII(IIIT(TWI(WII(IRRRRRRRRR!TTW!WWL(((S(WW(WWWIWWIW!!WWWQQQ((((QQ(S",
"LWLLLLILILLILTTLLWLLLLILITTLIYLLITTLTTTTYLPITTTTIRIIRPIPIIPRPIRPIIIRIIIRWS(IIIIIPRRJJRRRT!LLLLWW((W((W(SWWIWWIWW!WWWWWQL((WWSQ((",
"LKLKLLLKLYLLLLLYYLLLKLLPYLLLLLLLKLYLLTTLYLYLLYYLRRPRRPPPIPPPPPPPSIIILIPPSRIIPILPPPPPPRPPTTL!!LLLRR((LWWIIIIIIIIIWILWLWLQ((WW(R(S",
"LLKKKKKKKYLYKYKKLLLKYKKKKFKKSFKSKKKKKKYKKKPYYYLLSSPSPPSSPPPPPPSPISPSIPPPSSSSSLPPJPPSPZPPLYLLLTLKRSSSLSWSLLLLLILI!LWWLWQL(IS(SRS(",
"UUUUKKKFKUKUUUKKJKYUUKUKKFFFKASFKKKBBKBBKKLULULUSSKPKPSSPPPKFPKPSSPSPSPPPFKFPUUPPKFFAKKLLYKLLLTLISSLSISIPLSLLKLLLLLLWLLQS(RS(SRS",
"KKKKKFKKKKKKKKKKKFFFKFKFFFFFAFFFSNKBNCBNKKBUUBUBSSPKSSKAKSKKKKKKSSPSPSSPSKKKKKUKKFSPKKFKYKKKKLLLLLLPSIISSKLPKULULLKLLSSLSRSRSRSR",
"CFCKFFCFCKFUFFFFFFFFAAFFNAFAANANCBCCCCNCKKBBBUBUFFFFFFKKKUKPKKFFZSSSSPPPUPUKUKUKKKFKKFKKKBKKKKLSPSPSSLSSKLPLKKBLLLLLLLSS(SRSRSRS",
"CFCCCNNNCFFFFKFFCFCCFZNZNNMNNMMNCBBBBBBBBBBUCBBBASSFFKPUKKPFPFPKPSPSPFFFUPUKUUUUUKUULUKKKKKBKKLKPLLSPSLILLKKSLLKULYLSW(S((SRSRSR",
"CmCmmNmnCVVVCCVMmCVVVCVMMmVmVMVNCCCCBCCCUCCBCUBCCKKFKSSSFFSSSSSSSPSFFKKBUUULFUBUKUFUKFKKCCKKUULUKLLSBLKLLKLLLUBLULUUPPPPPSPFPPPP",
"mmmCCmmmmmMVVVCMVmVmVVmVmVVNmmVCmCCCCCCCCCCCCCCCNCNNNNAAPSSSFZSSSZFFBFFKFBKUUCCBUKKFUFFFFFFCFKFUKSBBBBKBBBLBLBLBKFKAAPSPJPPPPPPP",
"mmmmmmnNVNMmMNNNVVVCNmmmVVVVVCVVCCCCCCCCCCCCCCCCNNNNNNBMZASASZSSSFFSKKFKCBUCKCCBFFFFFFFKFCFKFFFKKBBNBBBBNBLBBBBUSAAPAASSPFPFPPPP",
"mmmmmmBMVmMmMMNNCCCVCVVMmmVmVmmCmCCmmCmMCCCmCCCCNNNMNNMAZZZZZSAAFZSSNFKFUCCBCCKCFKAKAFNAFKFFKFFFBBBBBBBBLLKKLULTKSPKJPPFPPPPJPPJ",
"mmmMnMMnNnnnMZMZVCMCCMMMMMVmMMMVCVmmVmmmmmCmCmVVNMNMMAMMZAnAZAAAZAFAFAAFKFFFKCFCFFFAFFAAKFUKFFKUBCKBBLBUKLYYLYTTPPPJUPJPPPJPPPJR",
"mMmNBnBmMMnMnnnnmMMmNnenmMMMMMMMmNMMmmMVmCVmCVmmMMMMMMMMZnnAZZAAAFAFFKFFFFKKFUKFFKFFFFFFFKFUKUUJKBKBKKULKKLUKUYYJJPKKUPFPFPPPJPJ",
"MNNMnAnMMMnMqZqqnnennnnnnnMMMqMZVmmmVVCCCCCVVCVCCCCCZAAZAZSSSZHSFFUFFKJFFUFJFFFFFFFKKFFKFFFFFUUPFKFKKKCKKKKFCFKKFFFPFPFPJFSJJPFP",
"AZAMAAAAnnMMZnq9MnnnMtMnnnMtqMnMVVmVmmVVVVCCCCCCGCFCFFAFFSAAFFPJPJPJUUUPFFUFUFFFJPJFUFFFCFFFFFKFKFKKFCCNFKASNNAKAKFFFFFFAFFFZFFF",
"AFJZFZZZqMtMMnqMMMMVMMMDVVCVVVMtVCCVCVCUUCCCCGCGFFGGFGDFZHZASZPZUFFAAAAAFFAAAAAAZAAAAAAFAAAZAAAANNCNNANANAANNNAAAAAZZFAAFAFAFFFF",
"ZZZZZZnZZMZMMMMMDVMNDMVMVCVCCCVCCVVVVCVCVCCCCCGCCGDCCMMNZZZZZZZZAAAAAAZZZAAZZZNAnMMMZAAZZMMZMMMMMNMNBMMMmMnBMNMNAAMMNAAZAFFAFAFA",
"DZDDZDZZZMVMZMMZVVDDDVDDVVVVGVGCVVVVVVVVVVVVCVVVVVVVVVMDZZqZZZZqZZMZZZZqMnMnMMMMqMMqnMMMMnqMnMqqnNMMMnMMnnnMnnMMMMMMMMMMZZZZDZFD",
"DDDDDDDZDMVNMZVtVZVVVVVMVVVVVVVVVVVmsmVVVVVmVVVVVVVVtMZtfZZZZqZZZAZMZMZqMMMMqMMqqMqnMMZMnMMnMqMqMnMnMMnMnMmnnnnMMMqMMZZZZZZFAFFF",
"ZfDDvDDfVmsMsmmsVmVVfVsMmsmsmssmemeesmeeMsMtneemtqtqtttZZqqZqZvqZZZZZZZZZZZZZqqqnMMnnZZZMMnMMqMqnNMnMMMnMnMMnMMMZMMMZZZZAZZFFFFJ",
"rtetMftttetemeemsssstteess<m<msme9em<eeetmtetetttttetZttqZfqqZZqZZZZZZZZZZZZZZZtZZZZZnZZZZMZMZMZMMMMMMMMMAMNMMNNZZZZADFFFDFFFJFJ",
"rwewewweeeeeeemsmsmeemeemssmsss<eeee<eemeeettmtfqttZffZDqvZvZZZZAZZZZZZZZJZJJFZZAZZFZFFFZFZAFZZANNMNZMMNADFNZNDFHFADDFDFFDFHFHFD",
"w9www9w8eeee<e<<sss<e<e<<s<<msm<<ee<meeetemtfVVDVDDZDDHDJJFZHHHHHHFHHJJJHZJJJJJJJFJFHFFFJFJFFFFHAFHDFFHDAADFFZGFHFDAFFHDHFDFHFHF",
"ww8w8<w<ww<eeeeeme<<msssm<m<ss<sesss<ssssVsmssVVVVVVVVVVGGVGHZvHDDDDGDGHHHHHHHGGHJHHFHHFFDDHDFFDCGVVVCVDVVVVVDVVCGVCVVCCVGVGCCVC",
"w8w8<<<<ww<e<ee<<sss<s<m<ss<<mssssssssssVsVmsVsVVVVVVVsVVVtVZZZZDDVDDGGGGGGGGGGGGDDDDFZDtMZMZqMtfVfVffVVfVfVVVVVVVVVVVCVCCCGVGCG",
"8w<<2w<<<eww<e<<m<<ems<s<m<<<<<sssssssssssssmssmsmsmssmmttMtvZZfvVVCfDDGGGGGGDVGCCVDDVDZtMtMttMtVVVVVVVVVVVVVVVVVVVVVVVVVCVCCVVC",
"<<<w<<www8<<<<<<<<es<<m<s<<s<m<<as<s<s<s<se<<s<eemsesmssZtZffZffFDbDDCDbVVGFGDGfVDDMVVDMCDDDDDMVVVVfVVVVtVVVVfVVVVVVVmVVVVVVVVVV",
"8>>w<8<<ww<w<<<<<<<<e<e<<<<<<<<saaaa<ss<eeee<e<meeeetettttqffZfZDfVfffDftfDvbDDDZDfDtDtZZMDDtZqqfVfVtVfDtttMfVttmsmstmmstmVmfVVs",
">w<58<w><<w<<<<we<e<<e<es<<<s<<<<<a<<<<aseeessssetmsmteteeeetttqttttfttterttMtftttqqqttettttMtttttettrtteeettetesVVeteeteeeessee",
">><>><<w<we<<ww<s<e<ewe<<s<m<<<ss<s<a<<<eeseeeeeseeseees9e9909t0tteretfttee9ewtert9reer9tttqtttertreeeeeeetttttrsVsteesteettttem",
"<2>ww58<w<<ww<ew<e<e<e<es<<<<ms<susssassa<<e<<e<weeeeeeerere90eefffftftfffeweww9ee0eeeeww9rwerwweeeeeetrrtftftftVstteetesfssVsfs",
"2www<w2<<<<<ww<we<wew<eww<ewewew<wuaeaa<<<w<w<<westteertee9wwrteewrtttfftrtreeeereeeereerwwteerter0retreetrtttttfftttttfttstffff",
"2w52>>>2<ww<w<w<w<w<we<e<w<<<<weaaww<<a<wewrwe8eeesreettteww99eeererrtrtreewrwrrrer0errewwwwwwerreeeerreererrr0eftfttrfttstVtfee",
"58w>>>>82w<><w8w8ew<<ew8w<ewww<wsaawa<swsseeweetesfereertrwew9eeerwewtee9wwwweeewrrrwewrwwwwrwwrre0er0rewrrww0rertetestffffftter",
"8w5>>285w><ww<w<w<www<<w<e<w<eewsu<uwawaseeeeeetasrreassteeeewereeertwww88wwwwrrtrwerrerw8rwwwwwwrrw0er00wwwwe8rrererrtrffvVftre",
"wr222>www>8<<w8ww<w8<ww<ww<w<wewaa<uwwawsewwweeeaasseraeteeteeeetreerrrwwewereferasdrreawwawawererrertererrrrrereerrresssfdsdfsr",
"58w8<52w<w25w<w<<w<ww<ww<wwwa<wwaaus5waaeewwweewrdfaeeeferteeeefetteewretweraersefarawawrraweaaadrererrsrreaesrerrwrrsrrrrrffddf",
"2525>2852w2<w<<8w<w<<ww<w<<wa<wwsas<awraerer9rwerssadaataereefetrrrrarerrrrsrrsfssdrarrr5wwr5urarrrrrrrrrsrrrrrrtrererstrrrfvfff",
"2228w>22w>w8<w<w<w>w<<<<w<ww<<awwuaawawwweeerrewrdsdeaefefefttertsfssrfstsreerrrdrdrae5aw55wrwwwwrrwwrwrrrerrrrrddsarrrrrtfdffdd",
"25<5w<a5aw<<a<a<<<w<<wwwww<wwwewwwrweawaerreerreaeerewaeesfsfftsfftrretrtt9rrrrwtrr0wwww<>5<5a<ar5rr555rrrrr052225w5r2rrrrdvfvtr",
"2w55w5w<wwa<<5w<<<<aw<<<w<weweeawwwrerrrerwrrrrwrereerewrarftssftettetewwrwwwr9rrererwww<><5<<5urr5rr0055055r5r550r250rrrrtvfddr",
"5<5ww5a<rwwww<a<<<<w<wwwewwwwwwe5wwwrrwwrraarederedarsaarerssrdfestertttrwwrw0rrrrrrr88255<55ww<5w7rw2555r500r55500555rdrfddfrrr",
"w5w55w5aeawwaaaewa<wwwwwweeweeswwwwwrwerrsreaereaererertetrrrsrttretrerrr8w08wrrwrwrrr5w>55u<5u<5rw55520225252r0r5r5rrrfkrvtvvrd",
"50w8w5wrwrwwwwwwewweeerweeeewaewwawawawaaswaaaaaddsasdderasdadaarrerrrrsw88550r08rrrww52555<wu<55r050525525r55r7r5rr7rrvddvrdvdr",
"r5r2wwwrwww58ww8waeweaeeewwwewww5wawawawreareerarrradrrdarrdrae5errrrrtrrr05505508r8ww82<awuu<wu77rr52050555rr5r7rrrrrddddrvdrdd",
"r55rwrra2ww8888wewerrrwr5rwwwwwwwwawwruw55wa5wwwrwarra5araaearaarrwrrrrrrrr5555r5r255555u<5u5ua5rrr75055575770r7550kkkrvdkrrrkdk",
"0rw555erwww8ww8rw55wwwwwreww5wwwra5wa5<5rww5r5uw5aaw5wrrardarr<ur5r5rdr7rvr0550320525w55wuw5wu5577077557r70r7rr03rkr7r77k07777r0",
"55r0rrrr80w288882ww82wwrw5wwwwwrawuuawaa<uwuuwu<aauaawu5aua5au555557rur7655456552555555r55a5uuu555557577krkrr7777777rkk7kr770577",
"r20rrrrrr2888888www8wwwrwerwwrrwsgssaawauuwwwu<uuaa5uawuuw<u<,<5555555555542216522555555uauaauu5577k7rrkrkkr7k777rkr7707zr755303",
"0055000rr0822288w5rrwwrwrrrrwwwwsagsaaua<uuaauuwua55,uu<5uu5555,55155111665666666555r7ud5uauuuuu7r7rrzkrrkkr7r77rk7kk7k777733313",
"57505rr0wr82220822ww5288r5wwrrwruuw,uaauuwaauwau5545>55uu55uu55541546546777777777r7757duguuaudu5777kk077kdk777777kk77k77k7775535",
"500205r0rr22288r82rw2252wrrw5wr8<u<<u<uuuu<uu<,<5u5>,,,555555,554454666676i66776pddupupdupuppuuup777k6737kk7k777zk7kk0jkkk7k7737",
"r07005d0050r8880wrrrrwwr5wwww585auuuu<,<u<<,<,uu55,>>555,>5,,55,141414654646*64477p5du5ppagugpup777kj0737777k7kr7kz7777677k7kk77",
"kr0070d0r000r08rrrrrrwrrr8w22w25uuu<u<u,<uu,<uuu5u5u,,<u5,,u5,uu441##141#11&4###51514545uuuuuuu41130577777kk777k7kkk7jk66jjzkkkk",
"vfvtr0vfrrrrr0r5rwrww2wr2rw25222<uu,uu<uu,u<,<ua5,u,uu,,uuau,auu5644#X#####1*####:::,14454444,51#:113777k7777zk7kkkkj0jk6777zzkk",
"rr00krr020555rr725>ww5r5ar555555aaauuuu5uu5<5,u,u,u,,uu,,u,uyuyupu44X1#4XX###4#4:O:4:X:XXX:1544313133066kkkkkkkzkkkkk76377lpiiix",
"kkr70503557575555ww55w5r7adrddrdgagaaaauuuuu5u<,uuuuu,u,,y,,,yyui44OXXO4X#X##&#&OO:OOXXX1#1144566037kkkk7kkvkkvzzvvk7jj736y*666i",
"000000003r5rr57r5w5w5005rddvvdddggddguuuuu,55>,5,uu,,,,,,,,,,,,,44:XX.XXXXOOO#&O444&4#O44446ypiukkkkkkkk7kklvvvvvvvkk77766666&&*",
"00r70r00085r55585ww25r55r5rdfdvddpdda55>5,5<,5>5,,<,,,,,,,=,,,,O,4OXXXXOO#&#4&&4iy44444446p6pppikkjkkkk6677kkkzbzzk7j766j7l6*###",
"0000002>255r05r5r5022222355rrkrr70rr512:<,121:21,,,,:,:O,,,=:OOOOOX#O4&#4&&4yiiipxppipipiippipig7z76i7i6667jp7xzp764646&j3j3##$#",
"000020012220r505r2888302220w75705r7p75225521:211<,,,:OO:,,OOOOOO.XO4&4446yiiipxxpppxgzpppiyiiippi7i6i7766676i6pppii6#######3##$3",
"002220222205r0r525038052230307757777532311121111,,,:::OOOOOO..OO.O&&yyyy-4yyiyyiilpzixiiyiyyiyyiy66*y6;4;4&&##&46y4&&&6*#33jjjjj",
"22202>0>>22550rr5005503r205037077755222355322112uu,<uu,,,OOOOOOOOO&&&y&*%*%**%*&*7ixpii4iyyyyyyyy;4&&4&&##&#..&X&&&&6ylikjzjjzkk",
"12>22122238250203052077r750033r75323053253757777agbbbgpy4&4OOO&4OO%OO=oO%-=*=-%-iy66*6&-O-=-==-y&&&yy4&%&&....&&y--iixxxczljjlll",
"2152555550r035r3r55r7rvr7r755307035116757777r7dpuggbgpuy444#,&O&o%O%-Oo.%%%%%*&%&%&%&%&&=OOOOO=--&&&%&&&y&&&OO&yy-iiiiiiczljlzzl",
":22457775655r5r757777rdpk77755657665167777ppz7pzgpgpppp44y44OO#&O=%=ooooO%oo%%%%O..o%%%%%o=ooo%&*&%&&&&&;;*=*-%&-ii;ixxxjljjjczl",
"::1457655154532555557677777663366656567667677777ppppppuiy444#OO&-==Oooo ooo@+ %oo.oo%&%.%%o==O==.%.%&%%*;&-*%*&%--;;;i;xlhhhjjjj",
",::O44,441144444556545446pu666467upu764166u76uu7p6ppppi54444444y--== oo=o+ + ++ oo o%%=%---=@%%%@%%****%**-**%%%=%--;hxxhhhhhhhh",
"OOOOOOXXXXX#:#116441244567pp644466666644766p6p7p4566ppipipiyyyiiy;=+ooo=  ++++++o  oo %%;;-%@+o@%%*;-;;-;;;*&*$%=%&**;;hhh$$hhh$",
"OOOOO.X.X.X#X#44441:::O145y44414i444444iuip4i646144466pppiiy4yyy--=+oo++%+      oo o++  --%%@.@@&***;;ix;;;y;**&&&&*;*h;**@@@$$@",
"..OOOOOOXXXX##O#:::XXXXXXO#4#X##44444yip44644444X#1445yipi6644y-=====+          oooo+==+%%%%%%%*i;***ixclil;;*******-;**$%$@@@$$"
};
