/* XPM */
static char *_716_2b80f05d6ba70f58bf965014b78b970647efccf95fe1d2dbc9604c847d5f57f8[] = {
/* columns rows colors chars-per-pixel */
"128 128 28 1 ",
"  c #02070B",
". c #030A0D",
"X c #08090E",
"o c #040C11",
"O c #080B10",
"+ c #021313",
"@ c #081215",
"# c #011B16",
"$ c #021E1A",
"% c #012216",
"& c #02221C",
"* c #08241D",
"= c #03291C",
"- c #08281B",
"; c #031F20",
": c #042521",
"> c #092422",
", c #032B24",
"< c #082B26",
"1 c #042F28",
"2 c #0A2E28",
"3 c #033126",
"4 c #04342A",
"5 c #09352B",
"6 c #05392D",
"7 c #09392E",
"8 c #073930",
"9 c #0A3C32",
/* pixels */
"76799769999966666666666666666666644446886463666848888468666688668988644444667999389964666644666966488888999888844664446996644466",
"96779766969669666666666666666666666444446444444488888466446888888866666666367555468664466466666666468888888818148466666866666666",
"97466446666666666666666666666=66868464446463343688888864346968886664466643435555363644433666636364466664841888886666866866666664",
"764664466666666666666666=6666666646644346464367784488848469944444646644443445757663364436366663344644644448418184646666446666644",
"633766366666636366666==636666666444454634464678917784448656663336444443478864434433368333343444481884448184414144444864346444444",
"33576536366636666666666666=66=6=3344445364443789,3761118333536664644443433643334433346633633344684884444811888144433444364433344",
"3336633633363666666=66=66=36666=3433346633431334134434443333656644444444,,343347344344336333346614114114414444188413463343333334",
"33333333363333336=66=666666=666=44313363431,,,3,331344317333356344434466334333,36444333,4443344411441114411811188413464343433333",
"=-565=3=4444333337753335=336333=633,3333331333333333353333366=333443344463,3,,33,33444333634544641411448811814114337433334533,34",
"635553344464633633335333=3=6363333,36333331344333333333336363336,333333343333333,333543333331333111111111811818133333333=343,344",
"533533=3334334443-333543633-63333=3344,=3334633,63433633333333=6,,,,35333313,333,<3333331,3,,,3311111111111811111133313,3,33,355",
"-33-4=5533333333733-53433=36-63-,,3344,,3333433,33333333=333333343,,323,413,3333553<3<3<3,,,,3,111111111111281113<<33,,33333,332",
"53<5<355-433333353-5355-33=366=633333333631,33333333343433363==673<<55<<333,3,335313,333,3,,,111111,1111111111113<,3,33<333,3,3,",
"5-353=<53335333333==555-3=36-==6333,333343,,,3333==3334433=663355<<33533,333,33,33<33,<33,,3,,114111,11111111111353,3,,32333,,,,",
"======,333533433333=3553=3=63==6333,,,33333,,3333==3=333=3363336<33,,333333333,33<3<,,,,3,,,,11111:1,111111111:,3,<,,,,33<,,,,,,",
"3=334332322--===,=3333-3===3===3,,33,,,3,3,3333,433=3===3==33=333<3,,,,=,,33,3,,3,<1131,,,,,,:111:,,:1111:1:,,11,,,,=,,,,,,,,,3,",
",==,,,<,3<,,,&,5=,,,-,,,=33&,,3,,,<3,,,,335<,,,,,,,=,=,,,,,,<,3<<,<,,,&,3,33,,=,,,11<11<1:1:111111,,1,1111,111113<,,,,,,<,,,<,<=",
",,,,3<3,<3,,,&,,=,<-,,,>,<<==33=,,,,,33,5<3,,,,,,,,3,,,,,3<33<53,33,,=,,,,,,3,,,:,1,1::1:1:11::11111111111,11,11<,,,=,,,<<<,<<,,",
",,,,22<,,=&,,,,<,>,,-,,<=,<=,3<=,,,,,,3,,,,,,,,,,,,<,,,,,<,<<33<<33,,,,3,<,,<,,,,,,,1:1:1:11:1:11,11,,,11111,:,1,,,=,,,:,,,>,<<-",
",,,<33,,,&=,<3,,-,-,,=<<=,3,,,3=,,,,,,,,,,,,=,:=,,,,,,,,,=,,,,,,,,<<,<<3,,,,,,,,,:,:;1:1:1::1:1:1,,:,::,1::,,111,,,,<,,,<,,,,>,,",
",,,,<,<,5,&,<,&&,::,:,,,&,,,,,,,,,,,,,,,<,,=,,,,,,,,,:,,,-,:,:,&&,,,,,,<,,,,,,&,1::::1:::1:1::;1:::,,:::11:1:,11,,,,,,,,<:,:>>,-",
"&:&=,>-,,&&,<,,=:,,,==:,,&,,,=,=,,,,,,=,,,,,&,,,,-,:,&&:,,,,,-&,,,=,=,,,&,,=,,,,::1;::1:,:::11::111,:1,,1:,,1,:1,,&,=,-,,,=,,,,:",
"&,:,:,:,&=&:<,,<:,::::&,,,,,,,,,:,,,,,,<,,,,,,,&,,,==,&,,<,:,>,,&,,&&,=,,:,,,==,:::11:;::,::::1::1::,::11::11:::,&=&,:,,,:::>,=:",
"=&:&,,,,<,&,,&&&,>-:&&&:,::,=&,,:&=:,,<<,&&&&&&,><<>:,,-<>,,,,:,&,,=,&,,=:=&,,,,:1:1:,:::::;1::,:,:,:1:,:::11:,,,,,,,,,>>,=,:,:&",
",:,::,:,:,&=:&&&22:<:1:;::,::::,,,:,&::,&:&&&:&&,&&:,:,=&::&&&&,,,&,&,,,&&=,,,,,12:2::::1::1,::::1::::,:::,,:;:,<:,&,,,,,-,>>=:&",
":&:&&&:&:,,:&:&,>>:::::1:,::::::::&:,&:&,&,&,&:,=,:&:,:::=:,,:::,&&:,,&&:,,:&,&:::::1:1>::::>,1::::11;::::,<::,,,,&:=,>,:,<:,>:>",
",:,,::,,,::::&:&;:::;:;;:::,::::&&&:&:&::,*>&,:>:::,:,,&&,::::=&,&=:,&,&&,,&,&&&:1::1><21::1,<,::::;:,:1;:,:::::&=&::,,:,>,::*>:",
":,:-,-::&&&:&&&&::;::;;;:::::,::$$&&&&&&:=,:>:>>&&&,>,:&::=:,,:&&,&&:=&&,,:,,&,&::::;1:<:1:;:,::1::1:::;:::::::,:,==,:&,::*===,>",
"&$&&$&&&$&&$:&:;;;;1>1;;1:;::,::$$&*>&&>&>>:>:&&&:::>>:&:&&:::&$&:,&&:,&&,,&::&,::;::::<;:;::::;:>::::;::::<<><,&:,,,:&&:>>:>:>>",
"$:&&&$&&:&:&&$:;::;;>>1;;:;::,:::&::=>&&$&&==>&&=&&>,=:==&:&::&$,&&&,&&&:&=&&::,::::>:::::::::::,:::::::::>:;:::,,,=::,:=:&&:*>:",
"::::&:::&:::::::;1;;1>1>1;:;:::;::>&:$&:&&:*:&&&:&:&::>&::::&&&&&&:&&&&:&&&:&&,:;::<1:;::;;;::;;:>:::::;:;::;:$$=,::&&:,&:::=:=>",
"&::&&&&::&&$:&:;;;;;;>;;1;;;:,:;>&:&;&:&;$:>>&;$>:&&&>=:=>::&$&=,&&::,:&,::&&,&:;:::>::;:::::::::::;::::<:>::::&::,&&&&>&&=>>>>=",
":;$:::;;;;;$;$;::$;$::$;::>;;:;;>:;$;;;;;;;;>>;;:$&:::*&>=$&:>>>&:;:::;:::;:;::;$;;>>::;:>>;:::>;;;>>;:;>:>>:::;>:>::&&*:&:&&>&>",
":;;:;;;,::;;:::;:;$;;;:;:::$$::$;;;;;;;;>;;;;;:;:&$&&&:$>:&&&:&&:;>::;::;$>:::$:::>>>:;;;;::$;;:;::::::;;:;:;::>&&&&:=:&>&*&:&&&",
";;::;+;>;;;;:;;;;$;$$;$$$>:;;:;;$$;>;;;$;;;;;;;;$&$&&:&:>:&$&&&&;$;:;::$:::;;>;>:;:::$;$$::::;$;:;::::;:;::>>$:$&>:>-:>>&:*:>&&:",
";;;;;+$>;;$;;;;#&;$$$:;$;;;$$$;$;;;;;$;;;;$;;;;$&&$$&$&$&&$:&&$&;::;:$;;:$;::$::::;::;$$$;;::$:;;:;;$;:$:$;$;:;:>&>=>*,:>&:&$&&&",
";$$;$$$;;$@;>>;$:$$;$;$;$:;;$;;$$;$$$;$;;$$$;$;$&$&&$&$&&$$&&:&>$:;:;&;:;$:;;&;$;::>::>:>:;;;::>;:$:::;::;:::;:$&&&&$&&$:*&>&&$&",
";$@;;;;$@;;>;;;$;;;$::;;$$;+$$;$$+$;;;;$;$;;;:;$$$&$&$&$$$&:>&:>;$;$:;$$;:&;:$:;$;$;;:;::::$$;:>$;:;;;:$$;:;;:;:&&&&&$$&&:&$&&&&",
">;@$;;$@@$;>;$#$;$$;$;$$$$$$$;$$$$;;;;;$&$:$:;;$$$:$$$$:#$$&$$&&$;$:;$$$;&>$;::;$$$$$;;$;;:;;$:::$;::;$;;:;::::;>:&>>:&>&&&:>&:$",
">;$;;@$;$;;;$@;;;$$$$$;$#$$$$;;$;;$#$$:>;:$;$;:$$$::$$$;$$&$$$$$$$;$:$;$>;;:>$;;;:;::::>$$:::;$$;;$::;:$::>>:>;:&&&&:&>&$&&&$&&:",
"@$$**@$$$$$*@$*@;$;;;;:$;$$$$$$$$&$$$$&&$&&$$$$$$$$$$$#$$$$$&$$$;$$$;$$$:;$$;$$$$;;:;$;$$;:::;;$:;$;;:::$:>:;:;:>&*:>&&&$$$&$&:&",
"$$>@$$;*@$$$;$$$$$$$$$;$$$;;$;$$$$$$$$&&$;:$$$$$$$>$$$$$$$$$$$$$$$$$$;;$$;$;;$;$$$$$$$$$:::;$$;$$$;$;::;;$;;;;$:&&::=:::>:>&&$$$",
"#$$>$$$$$$$$$$$$$$$$$$;$$;;+$$$$$$$$$$$&&&$:$$$&;$$$$##$$$#$$$$@;$$;$$+;@>;$$$;;;$:$$;;;:::$$$;::$$;:;:;$$$$$$$:$&:$$&&$>::=&$$$",
"$$$$$*$&;$>$$$$$;$;;;$;$$$$$;$$$$$$$#$$$$$$$$$$$@$$$#$$$##$#$$$$;$$$;;;$$;$;$;$$;;$;$$:;;;;$$;;>;:$$$:$:;;$:;$$$&$&&$&$&&&&&:=&&",
"$$###&&&&&$&$$$$$$$$$$;$;$;$;$$$$##$$#$#&#&#$&$$$$$$$$$$#$$$$$$$;;$;+$$+;;$;;$$$$$$$$$$;$$;$;$;:;$$;$::;$:;$$;$;&:&::&:&$&$&$:::",
"*$$##&&&&&&&$*&$;$;$$;$:$;;$$$;$$###$#&#$$#$$$&$$$$$$@$$$#+$$$$@;;++;;$;$;;@$$$$$$$$$$$$:$:;;;$$;:$;$;$;;;:;$:$:$&&$&&$$&$&&&&&&",
"&%#&&&%#$&&&%&$#;;;$;;;;$;$;$;$$$$##$&$$&####&$$@$$$$$$;#$$$$$$$;$$;$;;+;;$;;$;;;;:;;;;;;;;;$$$;:&$$;;$;$:;:;:$;$$$$$$$$$&&$&$$$",
"&&$=&&%###%$#%&#;$##$$;$;$;$$;$$&$###$&$&###$&$$$$$$@$$;+++$#$$$;;$;$;;++$$@;;;;$$$;$;$$$$$$$::>$;$;$;&$;&:$;$;::&=:=:&&$$$$$&$&",
"&&=*&&$$#&##&&&&&$;$$$;::&$;;;;$$$$&#&&&####$&##&&$$#$$$$$$$$$$#@#$$$;$$:$$$$$$$#&#$$&$$&$$$$$&$$:;$;$$$$$:;$:;:$$&$&$&$&$$$&$&$",
"&&&&&&&&&$&&&&$%$:$$$;;$&$$$$$$$&&&$&###&$#%&#&#$#$$$$$&&$$$$$#$$$$;$;;$;;;$;$$;$$&#&$&$$&&&&$&&:$::&&;$:;&$::&$&&&&$&$&&::&&&&:",
"&&&$$&=:&&&$&&%#&&$&&$&$&$%=&&&$&&&&%#&#&&&##&#&#$$$$$&$$$$$$$$$+$$$;$$$;;;;;$;$&$$$#$&&&&&$&:&:$::$:;;::::::;:::$&&&$&$::&&&::&",
"=&&&&&$&=&&&&&&&$&&&&&&&&=%%:&:&&&&$&&&&&&&&&&&#$$$$&$$$&$$$$$$$;$$;$;$$$&$&$;$;&$&&&&&&$&$&&&$&$;$:&:::;:&:;&&$&:&::$&&&&:&&&:&",
"=:=>=&&&&&&&&&===%%%&%&&=%%%==%=&&&=&&>&:&&$#&&$&$&$$$$$#&$&&$$$#$$$$$#$$$$$$$&$$&$$$&$&$$$&$&&$&$&::&:&&&$&$$&&&:&&&&$&&&$&$&&:",
"$$=-=:>=&&&=>=:%=%=%&&=%=%%=%%==&&$&&==>&&&&&&&&##$&&&&$$$&#$$&$#$$$$$$$$$$$$$$$&&$&$&&:$&$$&$&$$&&$&:&:$&$$$$&$&$&$$:&:$$&&&$$$",
"&&&%&==*=&&*=&=%%%%%%%%%=%%%%%%%%#&&&=&&=%%&&%&%##$&&&&&%$$&&&&&$$$$$$$$$$$$$&&$&#$$$$&$$$&&$&$&$$$&&$&&&$$$$&$&$$&&&&&&&$&$&$$&",
"&=&%&&&=*=%&&=%%=%%%%%===%=====%&%%%##&%&&%#%=&%$&&&&&$#$$%$&$&&;$:&$&&&$$&$&$&:$$$$$&$$&&$&&&&&&$&$&$&&&&&$$&:=$$$&$&:$$&$&$&$&",
"-,=&=====%=&=======%=%%====%%=%===&&&%&=#%&%&%&&&&&&&&#&##&&&&$$&&&&&&$%&=&&&&&*$$&$&$&&:&&:&&&$&&&&&&=&&&%&&&&,$&&&&&:&:&&&&:&:",
"&-==%==%%&%&==%=%%%%%%%%%%%%%%%%%=&&%&&%&%%&&&=%&&&&&&&#&&&&=%&&##&&&&&$&&&&&&&&&$$&&&&$$&&&&&::&:=&&&#&=&&$&&&&&&&::::::&&&:&:&",
"===-===%%%=%%%%%%===%=%=%%==%%%%%%%%=%%%=-%%%%%=&&%&#&&%&&%%=&&&#&#&#&%&&&&&&&&&&&$&:&:$&&:$$:&&&:&&%&&&&&&&%&&&&:&:::::$&:::&&$",
"=&=============%=%=%%==%%==%%%%#%%%-%=%%=%%&%%%%%&%%%&%%%%%##%%&&%&%#&&&&&&$&%&&$&:$&&&:&$$&&$$&=&&&&&&&&&&&&=&&$$$&&&&&$&&::::&",
"%=====%%======-3=====-&======%&&%%=%=%%%-&=%%%%=%%%&%&=&&%##%&$%&&&$&#%#&&&&#&&&$&&:&&:&&&&$&&&&&=&&=&&&&&&&&&&&$$$&$&$$&$::&:&&",
"%%%======%======%===-=====%%%=&=&=%%%%=%==%%%%%%&=#&&%&%&&%%&%%%&=&&$&#&&&#%%&$%&&&&&&&:&;&&$&$&&&&&&&&&&&=&&&&%&$&&&&$&&&&::&:&",
"=%==%===%=%%====%%===&&%%%%%%===%%%%%=%%%=%%%%%%#%&%%&%&%&%&%&%%%%%%$%%#%%#&%%&&$&&$$::$$&$&$&$&&%=&%&&%%=&==%&&&&&&:$:$&:&$:&&&",
"=============%%%%%%=&=&%%%%%%%%%%%%%%%%=%%%=%=%%%&%&=&&%%%#%%%######%%%%&&%&%&%&&$$&$$$&&$&$&$&$&%%&&&%=&&%&&&&$&&&:&&&&&$&&&:&:",
"%==============%%%==%==%%%==%%%%%%%%-%-%%%%%%%%-%$%%%%%%%%%%#%%%%&&&#&##&&&###&&#&#&&#&&=&&&%$&#&&&&&&&#*&&$&&&&&&&&&&&&&&-:,&&&",
"===%==%%=============%=%====%%%%%%-%%%%%%-%%%+--#%%%%%%%%%#%%%%%%$$&&&&&&&#&&&&&%&&%&&#&#&&%&%&&#&&&&$&&&$&&&&&&&&%&&&&%%&&&&=&&",
"=======%==========--==%=====%%%--%---%%%%--%%%-%%%%%%%%#%%+%%%%#&$$&#&&&&&&&&&&&&##&%%$&&##&&&&&&&&&&&#&*&&$$&&*&%&&&%&%&&=&:-&&",
"======%===%==%%=%=%===&=%=%=%%%%%-%-%%%%%%-%%%%-%%--%-%%%%%%%#%#&$&%&&##&#&##&#&$%&%&&&&&%&&&&&&%$&$%$&&&&&&&%$&&&&&&&&&#&&&&&&&",
"%==%====%%%=%-%=%&%*-%%%%%==%%%#--%%%%%-%%%%%%%%%%%%%-%%%%%%%%#%$%&&#&#$%#&#&&&#&%&&&%&%&&&%&&&%$%&&&&#&&&$&$&&&&&&&&%&&&%&&&&&&",
"=%%%%%%%=%%%-%=%%=%%%%-=%%=--%%%--%%%%%%%%+%%%%%#%%%%%%%%%%%#%%####&#&&&#&#$##%#&&&##&#&&&&&&##&$&#$$$&#&&%$%&$&$&&&&&&&&&&&&&&=",
"==%%%%%-%%%=%-%%#%%%%%-%%%---%%%-%@--%%%%++%%%%%%#####%%%%##$%%$####$&&&$##&&#$#&#&&&#&#%&$$%$&##&#&&$#&&$$%$$&$&$&$&&&&&&$&&&&&",
"---=%=-=%%%%%---%%%=%-%%%%%%%%%-+%----%%%%%%%%%@&%%%%###%%#%$%%$$$&$#$##$$$&$&$$&&#&#&#&$%$&&&&&#$&$$$&#$&$$$$$&&%&&&$&#&$&$&&&&",
"%%%%%%%%%%-%%%%%%&%%%#%#%%--%%%+%%%%%%%-#+%%+%%#&**%$#%##%%&-&$%&&&$$&%&#&$&$&$$%$#$#$$#%&%&&$$&$#$#%#*&$$$&&&$##&$&$&$&#&&&&&&&",
"%%%-%%%%%%%%%%+%%%#%#%%#+-%@%-%%-%%+%+%%%#%%%%#%&%%*%$%%##%**%%####&$#$#$#$&&$$$#&$%&##&$$$&$%$%&&$&$$##&&$*$*$*&#&&&&&&#&&&&$&#",
"%%%%%##%%%%%+%%%#%##+%#%%%%%%+%%+%%%%%%%#%#%%-@%#*$#*#$$#*$*$*$##$#######$$$#$$$$##&#&##$#$##$$$*$$&#$#$$**$##$*$&&&&$&&&#$##&#$",
"%%%%%%#%+%-+%+%%%#%%%#%%%%+%%%%--+++@%@%#%##%%%#$$#$$#$$$$$%$##*$#$$#$$$#$#%*$*##$#####$$$$$#&#&#$$$$$*$#$*$$#$*###$&$#&$&#&##$&",
"%%+%#%#%%%%%%+%%%%%+%%%#%%%%%%###%##%@%@##%%#%######$$#*#####$$&#$$$$#$$####$#$$$######$$&#$$$&$###$%##*#$$$#+$##$#$$#&$&$$#&#$&",
"%%%%%##%%%%%+%%@%+%%+%%#@%@%%+%%%###%%%%%%###%########$#$#$##$$#&$$$$$$$######$###$#$$###$%##&##$$$$#$##$$#$##$$####$###$$&&$&$&",
"+%%%#%%#%@%%%+%%@%%%+%##%%%%%++%@%#%@%#+%++###+############$$#########$%#######$#$#$#####$$#$###*$$##$$##$#$&*$#$#&$$$#$#$&$&$$#",
"%++%+#%#%%@%%%%%@%%+%+##+%@@%%%+-%%%%#%%%+%####+###+####$*$$##################$#########$#$$#$#$###$#*$$*##*-*$#&$$&&&&&###$#$##",
"%%+%%##%##%%#+####++%%%@%%####@#@*######$$####$$##%$&$#$##+######$$#$$$####+#++###$###$#$$####$$###$#&$&&$$&#$$$###&$#&$&&#&#$$&",
"%%@%###@@%@##########-%+#+####%%###$###$$@+##$@$#####$########+##$####$#+########$##$##$###$######&#$$###$##%#$$#$#&$$##&$$$#&#&",
"%##%#%##%#%#%@####+###@%%+##%%+##$##+##$$#+###$##+#######+#+##########@#######++###$######$@$###&$&$$####$#&$#&$$&&$&#$$#$##$$&$",
"##+%##*%%###%%%@%#+####++%+#+#%#@#$####%##+++#######$$##+####+###+#+######+#+#######$$###$$#$$##$&#&$&$###$#$&$$&&$#$##%&$&$##&$",
"#+###-%###%##%####+++###+%%+%#####$#@#$@@##@##+####$#%%@########@#+#++#++###+#######+##+@*$#@##$##$$$&#$##$$$$$&$$%#####$$$$&$#&",
"%%%#%+##%$##%#%%#+###+##%++#%+##$@@###@$#@$$++#######%@#+###+####+#######+#+#+#@$+$####$$$#####$####$$$$&##$$$%$$$$####$%$$&&$$#",
"%%%%#*#$##%$$$#*##$#####++%#########+#####*$@$##+####++##+#+##+##+#+#$+#+#+##@##+#$+$##$$###$$$###$#$###$$&##*#$$$$#&$$#$#$$*$&#",
"%@@%#####$##$$%##$$##++#+%+####++#@##+@$$@@$*@$##@#@####+#+#+##+##+##@+##+#+##$@####+##+####$#$###$#####%$#&#*$$$$*$&$$$##$*$&$#",
"$$$$$$#+&$####$###++##+############@#@#@#+##@#@#@####+#+#+#++#++++$+#@##@#++#+##+#+$#+####@$*@$#&###$##$*$$##**##$$*##$$*##*####",
"@@$#@$@$$$###&&##$$##+###+###$#$@@#######++##++++##@#@#++#@+#+###+#@@#@###+#$@@##+#+##@#@$$##@#@$$$$$$$$#$$*$$#*###@$$#%$#@$$###",
"@##o#+$$#####$###+#####@#+$###$@##@$#*@#++#++++#@+@%+#@@@@##@##@@@#+@####++#@$$@#++$@#$@$$@##$#$##$#*$#$*#$$$*@$$$#$##$@$$#$$##$",
"+++o+++++++#########$$$$+$+#####$@$@@@#+@#+++#+#%+++++##+%@+#@#@$++$##@@#$@+##@$+$+#$$@$$@$##@$@####@#$##@$$$#####$#$$#$$#$*$###",
"X+++++++++++##+###+$$$$$###+####@@++#@#+##++++#@+++++++++@@@++###+##+@+#@@#@#@#+$++$+$$@@$@##$$$#@####$###$$$#$#$*$*$$$*$$@$$##*",
"@@@@@@+++++++##+#+#+++$$+++#+#+####++++#++++++++++++++++++#++++++++++##+$$#@#++++++#@++$#@#@@@@#####$#$$@$$#$$@##$#@$$$@$#$$*@#@",
"@@@@++++$+++#++++#+##+#++#+##+#+++++++#+++++++++++@%+@+++++++++++++++++#@##++#+++++###++@###$#@###$##*$@################@#######",
"@+..ooo+@@+++#++++++++++#+#++#+###+++#++++#+#+#+.+@@@++..+++.+++++++++++@++++++#+#+++++##@@##@#+#@#@##@##$@$#@##+##@+#+######++#",
"...+.+++.+++++@#+o++++++++++++#+++++++#+++++++++.+o+o+o+++..+..++++++..++@+@+++#+++#+#+#++++++++#++@+++@#++++++@#o+++.++#+++++++",
".++..+.+++++++@@+++++++.++++++@+++++++O++.+++++++.oo+o+O...+.+.+..+.+++++++++++++#+++++++#+#+$+++++@@+@@O#+o+++@++++++++++++++++",
"...+.++++.++O+@++....++..+.+++++.+++++++.+o++.+...+..++..++...+++.++.+++o++++o+o#+++#+++++++++++++O++++++.++@++++++++++.+o++.+++",
".++.O+..o+OX+Oo++++..+.+.++.o.++++..O++.+.+++.+.+..++.+.+...+....+.+.+.++Oo+o+oo++++++++++++o+++o+++o+o++...O+o+++++++++++++++++",
"...o+OO+@.@+XoOo..+....+.++..+.++.+++...+.+.+++++..+..+...++.+.+++.+.+.++.++ooo+++++++++o+.+oo@+++.++++o.+.++.++.++.++++++++++++",
"..X.....Oo...o...+...++.+..++.+..+....++.++++..+.+...+.++.........+.+.+.....oooo+.+..+oo.+.+oooo..++oo+o...++++..+++.++.++..+..+",
"..X.XoX@O.X.OXXo..+...++....+......+.++.++....++.+.+.+..+..++.+..+...+.....+oooo+....++..+..oooo.+..+....++o.+.+++..+.++++++.+++",
"X....XXX.X.X.OXo+..++....++...+..+.................+...+..............++...+oooo.+.++..+...+oooo..+...+.++O+O.+..+++.+.+++++++++",
"XXXXXXXX XXXXXXX+..++.O+.+..++...+.+..+..+.+.+.o+.+.+.........+....oooo.oooooooo.oooXooooooooooo+.+..+..+.+.....+.+.++++.+++.+++",
"XXXXXXXXX XXXXXX.+...+.O..+...+.+O...+.++..+......+...+.+..+.+...+...oooooooooooooooooo oooooo@o..+....+.+.++.++.+.+.+.+.++.++++",
"XXXX XXXXXXXXXO ............OO..ooo..+...........+...+...........+..oo.ooooooooooooXoooooooooooo+..+O++O+.+.O++.+..++++.++++++++",
"XX XXXXXX XXXXXX........+..++o..ooXo.O........ ....+..++.+....+.....o ooooooooo@ooXoooooooooo@o@..+..+...+.O.+O+.+++.+++++.++.++",
"  X X X  XXX XX... .. X OOOO.X.XX....XX.....   ....... ......+..oooo ooo@o@o@o@o@o@oooooo@o@@ooo+.ooo+.+.++.O++O++.++.+.++++++++",
" X.X X XX  X.XX. ..X. ...O.o...@..O..o....... . .. ++.+.........ooooooXoo@o@o@o@o@o@oooo@o@oo@@ooooXOo+OO..+O....+++++++++.+.+++",
"  ..  X. X X..XX.. .....OOoXX.X..X.XX..XX.X. O. ...............+OooOOooo@o@o@o@o@o@oooooo@o@@@@o@O+++OO+++..++.++..++.++++++++++",
"X    .   XX X....X.X....O.XX.@.X.Xo.X...X.X.O .X+ .......+......OooOOoOoo@o@o@o@o@o@oooo@o@o@oooo+OoO++O.O+O..+..+.+++.o+++++++@",
"         X. X  . .X.X...X... .  .. . X ... X.X... ...XX.X....XXooooooooo ooooooooooOoooOoooooooo@o@ooooooooooooo+++..++.++++++++",
"X .  .  .    .    .  .X.X..XX..  XX....XX .. . ..X...o....OX....oooo oooooo ooooooooOoooooooooooooooooooooo@o@oo+.++++.+++.+.+++",
"  .  . X   .  . . X...........  .. . X..X. XX.X  X.XX..X.OX.X..XooooooooooooooooooooOoooooooooooooooooooo@oo@ooo.+.++.+.+.++++O+",
" .  X .  .X  . X  . ..XX.X..X. X X . .  . .. .......X.X.....O..Xoooooo oo ooooooooOoooooooOooooooooooooooooooooo..+..+.++++.OO++",
"  .  X   X  .   X  X..X..... .   .  .  . . o XX  . O.X..XX.oX.o.oooo oooo oooooooooooooooooooooooooooooooooooooo+..+.+.++..++.++",
"X.X. ....  . X. . ... ..XX X.. X .X   X  ..X ...X. ..XoX...X..X.oooooo oooooooooooooOoooooooOooooooooooooooooooo.++.+.+..+++++.+",
".. .X..X.  .   X  XX..XX.X. ..    X  .. X X X . ..X...X....X.X.Xooooo oo ooooooooOoooooooOoooooooooooooooooooooo+.++.+.+.++Oo++.",
" X . . .  X .    .. X .....X X .        ......X. X oO...OX...O..oooooooooooooooooooooooooooooooooooooooooooooooo..........O@+O+.",
"X.. X X.  .X   . . X.   ...  X  . X.    X..X. . X.X.... .oXO.OO.oOooOOoooooooooooo oooooooooooooooooooooooo@oooo+O+.O+.+.....++.",
" . ... . X   .. .    . X.  .. .      ..  . ..X.. . . XX.oX....X.oooooooooooooXooooooooooooooooooooooooo@ooooooooO+O++.+...+.+.O+",
"X. X .X..  ..X   X . X.      .   .X X. X...  X.XX.... . o ooXX..oooooOoooooooOoooooo oooooo@oooooooooo@@o@oooooo+.+O.O.++.+..++.",
" . . .   .     .   .     .X .  X .      O .X . O. X  X..XX X..oXoooooooooooooooooooooooooooooooo@ooooo@oo@o@ooooO+.+.+..O+O+O.+O",
"  X X  . .  .     X   X. ..    .X .. X.  O .. O  .X.X X. XoXX oooooOoooooooOoooooooooooo@oooooooooooooo@o@ooO.oo++.O..+++O+O+.+.",
"..   .     X  X.. . .   X    X          . .X.  .O.  .. .oX   XXoooooooOooooooooooooooooooooooooo@@ooo@o@oooo++o..O.++...O+O+O++.",
"   . X.  X   X. X  . . .   X  .  .X .  ... ..X . . OX..Xo oX ooooooooooOoooooooOoooooOooooooooooooo@@@@oooo+oo@.+..++...+.+O+...",
"        . ..     .   X   . . X . .  . X   X.. O X... . .X    Xoooooooooooooooooooooo@ooooOoooooooo@@@@oooooooO@+..+...+.+.....+."
};
